<svg width="130" height="120" viewBox="0 0 130 120" fill="none" xmlns="http://www.w3.org/2000/svg">
<path d="M10.3965 22.7602C10.2135 22.8414 10.7625 22.6314 10.8303 22.6111C10.9997 22.5569 11.1758 22.5163 11.352 22.4756C11.4672 22.4485 11.5824 22.4282 11.6908 22.4147C11.7179 22.4147 11.7382 22.4147 11.7788 22.4079C11.9618 22.3944 12.138 22.3808 12.321 22.3673C13.1815 22.3266 14.0489 22.3944 14.9095 22.4621C16.6916 22.6044 18.6497 22.8482 20.3912 22.3131C21.6447 21.927 22.2343 20.8702 22.1666 19.6036C22.1124 18.5807 22.0446 17.5579 21.9836 16.5283C21.8616 14.442 21.7396 12.3556 21.6109 10.2693C21.5499 9.23971 20.5471 8.21009 19.4358 8.60974C16.7457 9.57162 14.1438 10.1 11.3927 10.2219C11.1894 9.97127 10.9115 9.7816 10.5659 9.70709C9.69857 9.51065 8.65514 9.96451 8.45186 10.9061C7.72005 14.3133 7.48292 17.8085 7.80817 21.2767C7.93691 22.645 9.14971 23.3224 10.3965 22.7602Z" fill="#B3E5F4"/>
<path d="M31.4971 33.6794C27.8787 33.5778 24.2399 33.9978 20.7299 34.9055C20.5199 34.9597 20.3302 35.0613 20.1676 35.1832C19.3884 35.3661 18.887 36.0164 18.826 36.8495C18.6362 39.4168 18.609 41.9841 18.731 44.5581C18.7784 45.4996 19.4832 46.2583 20.4522 46.2786C24.179 46.3531 27.9058 46.4209 31.6394 46.4954C32.5542 46.5157 33.3741 45.6961 33.3606 44.7749C33.2996 41.6522 33.2522 38.5294 33.2251 35.3999C33.2183 34.4516 32.4458 33.7065 31.5039 33.6794H31.4971Z" fill="#B3E5F4"/>
<path d="M38.6391 23.8507C39.0524 23.8507 39.4724 23.8642 39.879 23.9184C39.9264 23.9252 40.0213 23.9388 40.0348 23.9456C40.1568 23.9727 40.2788 23.993 40.4007 24.0201C40.6447 24.0743 40.8819 24.1352 41.1258 24.203C41.8847 24.4197 42.6775 24.6433 43.4703 24.6229C44.5545 24.5891 45.6115 24.1216 46.1739 23.153C46.7093 22.225 46.6686 21.148 46.6957 20.1184C46.7567 17.8288 46.8109 15.5393 46.8719 13.243C46.8854 12.7011 46.6076 12.2134 46.1943 11.895C45.7267 11.536 45.266 11.5022 44.6968 11.5902C41.5798 12.0508 38.4628 12.5047 35.3391 12.9653C34.4446 13.094 33.8754 14.2726 34.1397 15.0787C34.1532 15.1125 34.1668 15.1329 34.1736 15.1667C34.0042 15.3496 33.8822 15.5732 33.828 15.8373C33.4553 17.7814 33.1232 19.9016 33.2723 21.8863C33.3875 23.3494 34.4108 24.4671 35.9626 24.2571C37.0671 24.1081 37.5956 23.8643 38.6391 23.8575V23.8507Z" fill="#B3E5F4"/>
<path d="M64.2931 38.6853C65.2079 38.5498 66.204 38.5024 66.9968 37.9808C68.0335 37.3034 68.325 36.1722 68.2843 35.0004C68.1962 32.7311 68.0065 30.4619 67.7422 28.1995C67.6405 27.3121 67.0375 26.4315 66.021 26.4789C62.5788 26.6483 59.1706 27.3257 55.9519 28.5517C55.1727 28.8498 54.617 29.5542 54.7051 30.3874C54.678 30.3874 54.6508 30.3874 54.6237 30.4009C53.7699 30.638 53.1194 31.6338 53.4243 32.5144C53.736 33.4153 53.8309 33.9843 53.797 34.8987C53.7835 35.3526 53.77 35.4677 53.6615 35.9216C53.5667 36.3145 53.4041 36.6938 53.3295 37.0934C53.0924 38.4075 53.6954 39.7623 55.1319 39.952C55.6875 40.0265 56.2499 39.8842 56.8056 39.8029C57.3273 39.7216 57.8491 39.6472 58.3709 39.5659C60.3427 39.2678 62.3145 38.9698 64.2863 38.6717L64.2931 38.6853Z" fill="#B3E5F4"/>
<path d="M11.6638 67.0673C12.6463 67.1351 13.3104 66.2206 13.3849 65.3468C13.5204 63.7211 13.6288 62.0886 13.7034 60.4629C13.744 59.6501 13.7778 58.8304 13.7981 58.0176C13.8253 57.0625 13.6898 56.148 12.9715 55.4503C12.1922 54.6984 11.1624 54.6984 10.1663 54.8407C9.35315 54.9558 8.54675 55.0777 7.7404 55.1997C6.06672 55.4435 4.39988 55.6942 2.72619 55.9381C2.33996 55.9923 2.0214 56.2496 1.7978 56.5816C1.22183 56.7373 0.700069 57.1302 0.605205 57.7466C0.198642 60.4494 -0.0248951 63.1657 0.00220908 65.8955C0.0157612 67.0877 1.08635 67.7515 2.17729 67.555C3.72223 67.2773 5.11135 67.1148 6.77826 67.0267C8.41128 66.9387 10.0443 66.959 11.6705 67.0741L11.6638 67.0673Z" fill="#B3E5F4"/>
<path d="M48.5389 69.5737C49.1759 69.3163 49.8942 68.7134 49.7993 67.9141C49.4538 65.0827 49.3453 62.2309 49.4673 59.386C49.508 58.5054 48.6474 57.6044 47.7462 57.6654C44.1616 57.9228 40.6043 58.5053 37.1349 59.4266C36.2676 59.6569 35.651 60.6594 35.9356 61.54C35.9423 61.5671 35.9559 61.5875 35.9627 61.6078C35.9424 61.7229 35.9356 61.8448 35.9423 61.9667C36.1321 64.1953 36.1253 66.4374 35.922 68.666C35.8542 69.3908 36.4979 70.1563 37.1823 70.3256C40.9294 71.2536 44.9544 71.0301 48.5321 69.567L48.5389 69.5737Z" fill="#B3E5F4"/>
<path d="M78.2316 49.4285C78.13 48.5343 77.5269 47.6673 76.5105 47.7079C73.2444 47.8434 70.1004 48.6292 67.1325 49.9975C66.8954 50.1058 66.7056 50.2955 66.5633 50.5258C65.6417 50.5868 64.8896 51.2912 64.8828 52.2396C64.8693 54.6036 64.8489 56.9676 64.8354 59.3317C64.8286 60.5442 65.9331 61.1607 67.0104 60.9913C70.2087 60.4833 73.5291 60.1446 76.8968 59.9752C77.8454 59.9278 78.5908 59.2233 78.6179 58.2547C78.6992 55.3081 78.5704 52.3548 78.2316 49.4285Z" fill="#B3E5F4"/>
<path d="M65.1538 10.6622C65.0657 11.8272 66.3192 12.5453 67.3288 12.3217C67.6541 12.2472 67.9863 12.1795 68.3183 12.1253C68.3657 12.1185 68.5825 12.0847 68.63 12.0779C68.7316 12.0643 68.84 12.0508 68.9416 12.044C69.5854 11.9763 70.229 11.9492 70.8727 11.9627C71.4622 11.9695 72.0518 12.0102 72.6346 12.0847C72.7159 12.0982 72.9123 12.1253 72.9259 12.1321C73.0885 12.1592 73.2579 12.1931 73.4205 12.2202C73.7525 12.2879 74.0779 12.3624 74.4032 12.4504C75.5551 12.7485 76.4902 11.9018 76.5783 10.7909C76.829 7.75621 77.0728 4.72834 77.3235 1.69369C77.4184 0.501511 76.1513 -0.162285 75.1484 0.0341545C74.4573 0.16963 73.7661 0.298323 73.0681 0.406703C72.7226 0.460894 72.3704 0.515077 72.0248 0.569267C71.9977 0.569267 71.7739 0.603141 71.7129 0.616689C71.5368 0.643784 71.3539 0.664088 71.1778 0.68441C69.748 0.860528 68.3182 0.982447 66.8817 1.05696C65.9873 1.10438 65.1199 1.81565 65.1606 2.77752C65.1606 2.86558 65.1809 2.96039 65.2012 3.04845C65.1538 3.20424 65.1267 3.36684 65.1402 3.53618C65.3299 5.907 65.3367 8.29134 65.1606 10.6689L65.1538 10.6622Z" fill="#B3E5F4"/>
<path d="M87.9552 29.5136C91.2891 29.2765 94.6295 29.1613 97.9701 29.1681C98.8645 29.1681 99.7319 28.3756 99.6912 27.4476C99.5354 24.352 99.3796 21.2564 99.2237 18.1607C99.1763 17.226 98.4716 16.4538 97.5026 16.4402C94.3111 16.3928 91.1806 16.9957 88.2194 18.1404C87.9755 17.9982 87.7045 17.9101 87.3928 17.9237C86.5119 17.9643 85.6106 18.6823 85.6716 19.6442L86.2273 27.7931C86.2883 28.6669 86.9659 29.5813 87.9485 29.5136H87.9552Z" fill="#B3E5F4"/>
<path d="M30.7314 80.4455C30.7111 79.294 30.8941 77.8308 29.9658 76.957C28.902 75.9545 27.5468 76.3948 26.3 76.7064C23.7997 77.3431 21.2925 77.9867 18.7921 78.6234C18.5414 78.6912 18.311 78.8266 18.1145 79.0027C17.9519 79.0027 17.7961 79.0095 17.6538 79.0569C16.678 79.3752 16.3121 80.2153 16.4544 81.1704C16.8135 83.6089 16.922 86.3251 16.8068 88.8856C16.7593 89.9356 17.9519 90.9246 18.9819 90.5452C21.0282 89.7866 22.8916 89.4344 25.0125 89.4547C26.0221 89.4615 27.0385 89.6105 28.0346 89.3598C29.2543 89.055 30.1555 88.1473 30.5552 86.9755C30.894 86 30.8128 84.9026 30.7925 83.8866C30.7721 82.735 30.745 81.5903 30.7246 80.4388L30.7314 80.4455Z" fill="#B3E5F4"/>
<path d="M68.928 82.1931C68.8874 81.299 68.9076 80.3236 68.169 79.6869C67.4643 79.0705 66.6647 79.1043 65.7906 79.1653C65.113 79.2195 64.4422 79.2804 63.7646 79.3482C62.2603 79.504 60.7697 79.714 59.2789 79.9511C59.1163 79.9782 58.9673 80.0459 58.825 80.134C58.7369 80.1204 58.6419 80.1068 58.5471 80.1136C57.6459 80.1543 56.792 80.8723 56.8259 81.8342C56.9343 84.8147 57.0427 87.7951 57.1512 90.7755C57.1918 91.8458 58.2219 92.7805 59.3264 92.4351C62.1724 91.5342 65.0522 90.762 67.9659 90.1253C68.6706 89.9695 69.26 89.1904 69.2261 88.4657C69.1584 87.0567 69.0906 85.6545 69.0228 84.2456C68.9889 83.5615 68.9551 82.8706 68.9212 82.1864L68.928 82.1931Z" fill="#B3E5F4"/>
<path d="M103.628 69.2823C100.599 68.7743 97.516 68.9233 94.582 69.8649C94.0535 70.0342 93.6131 70.4542 93.4166 70.9622C92.8677 71.2399 92.529 71.7954 92.4612 72.4795C92.3053 74.0849 92.1563 75.6903 92.0005 77.2957C91.9327 78.0137 91.7769 78.7791 91.8311 79.5039C91.9192 80.7774 92.8881 81.5903 94.1281 81.6784C94.887 81.7326 95.6663 81.6648 96.4252 81.6512C97.2316 81.6377 98.0378 81.6241 98.8374 81.6106C100.45 81.5835 102.056 81.5564 103.669 81.5293C104.556 81.5157 105.437 80.7571 105.39 79.8088C105.227 76.8487 105.065 73.8952 104.902 70.9351C104.861 70.2442 104.401 69.4043 103.642 69.2756L103.628 69.2823Z" fill="#B3E5F4"/>
<path d="M111.597 48.4734C111.895 45.9603 111.746 43.4337 111.244 40.9545C111.089 40.1891 110.309 39.7352 109.584 39.6946C106.793 39.5388 104.008 39.7217 101.243 40.1552C101.04 40.0604 100.809 40.0129 100.565 40.0265C99.6642 40.0671 98.8036 40.7851 98.8443 41.747L99.1358 48.5073C99.1764 49.503 99.8946 50.1329 100.857 50.2278C103.852 50.5258 106.874 50.5123 109.869 50.1939C110.879 50.0855 111.468 49.4894 111.59 48.4734H111.597Z" fill="#B3E5F4"/>
<path d="M110.14 16.894C110.852 16.7314 111.563 16.596 112.281 16.5012C112.356 16.4944 112.613 16.4605 112.62 16.4605C112.776 16.447 112.932 16.4266 113.081 16.4131C113.453 16.3792 113.826 16.3521 114.199 16.3318C115.656 16.2641 117.119 16.3183 118.569 16.4876C119.491 16.596 120.297 15.6138 120.291 14.7671C120.264 11.6782 120.311 8.58259 120.433 5.50053C120.474 4.53188 119.613 3.8342 118.712 3.78001C115.771 3.61066 112.796 3.92905 109.95 4.68771C109.083 4.91802 108.466 5.92053 108.751 6.80112C108.765 6.83499 108.785 6.86884 108.798 6.90948C108.548 7.20076 108.385 7.58687 108.358 8.02039C108.229 10.4251 108.094 12.823 107.965 15.2277C107.904 16.3928 109.11 17.1175 110.14 16.8872V16.894Z" fill="#B3E5F4"/>
<path d="M129.723 60.2394C129.831 59.3317 128.849 58.4985 128.002 58.5189C124.932 58.6137 121.863 59.1353 118.949 60.1107C118.387 60.3003 117.919 60.761 117.75 61.3164C117.526 61.6009 117.384 61.9532 117.377 62.3528C117.343 64.7101 117.302 67.0673 117.268 69.4246C117.255 70.3323 118.068 71.1723 118.989 71.1452C121.923 71.0639 124.851 70.9758 127.785 70.8945C128.666 70.8675 129.574 70.1291 129.506 69.174C129.296 66.1935 129.37 63.1996 129.723 60.2326V60.2394Z" fill="#B3E5F4"/>
<path d="M20.3032 106.707C20.2558 105.908 20.2354 105.109 20.2489 104.303C20.2625 103.598 20.3642 102.84 20.127 102.162C19.7747 101.126 18.9142 100.496 17.8368 100.394C17.0779 100.32 16.2782 100.503 15.5328 100.618C14.137 100.828 12.7682 101.16 11.4265 101.586C11.23 101.505 11.02 101.465 10.8032 101.471C9.83419 101.512 9.12945 102.223 9.08202 103.192C8.9194 106.646 9.14989 110.088 9.69875 113.502C9.84104 114.396 10.9997 114.958 11.8128 114.7C14.3064 113.901 16.7186 113.441 19.2393 113.291C20.398 113.224 21.1366 112.255 20.8994 111.117C20.5742 109.579 20.3913 108.279 20.2964 106.714L20.3032 106.707ZM17.4709 103.815C17.5183 103.815 17.5589 103.815 17.6063 103.815C17.586 103.862 17.5318 103.856 17.4709 103.815Z" fill="#B3E5F4"/>
<path d="M47.3869 105.014C44.5071 105.393 41.6205 105.779 38.7407 106.159C37.8801 106.274 37.0399 106.829 37.0263 107.784C36.8027 108.069 36.6604 108.421 36.6604 108.821C36.6604 111.652 36.674 114.484 36.674 117.315C36.674 118.48 37.7649 119.205 38.849 118.975C42.1964 118.264 45.5506 117.545 48.898 116.834C49.5553 116.692 50.2465 115.886 50.1584 115.175C49.806 112.364 49.4469 109.552 49.0945 106.741C48.9929 105.915 48.383 104.892 47.3734 105.021L47.3869 105.014Z" fill="#B3E5F4"/>
<path d="M90.2319 99.2969C90.2048 98.4705 90.2116 97.6442 90.2522 96.8178C90.2929 95.9981 90.3878 95.1853 89.9338 94.447C89.6356 93.9592 89.1342 93.5799 88.565 93.4783C88.0297 93.3767 87.5282 93.4783 87.0065 93.5935C86.1798 93.7628 85.3464 93.9389 84.5197 94.1083C82.8596 94.4537 81.1994 94.7992 79.5393 95.1379C78.6584 95.3208 78.0688 96.4046 78.3399 97.2513C78.4754 97.6713 78.7329 97.9896 79.0514 98.1996C79.0514 98.2402 79.0378 98.2809 79.0311 98.3215C78.8345 100.557 78.6381 102.792 78.4484 105.034C78.3671 105.983 79.3022 106.721 80.1695 106.755C83.3204 106.877 86.4712 106.626 89.5678 106.057C90.53 105.881 90.9366 104.791 90.7672 103.944C90.442 102.325 90.2929 101.024 90.2319 99.2902V99.2969Z" fill="#B3E5F4"/>
<path d="M120.989 98.4029C120.968 97.5629 120.209 96.5671 119.267 96.6823C116.889 96.9871 114.517 97.292 112.139 97.5968C111.251 97.712 110.377 98.308 110.418 99.3173C110.425 99.5273 110.486 99.7509 110.574 99.9676C110.492 100.164 110.452 100.374 110.472 100.604C110.601 101.891 110.648 103.178 110.608 104.465C110.587 105.075 110.553 105.691 110.492 106.301C110.425 107.067 110.384 107.351 110.269 108.049C110.174 108.611 110.221 109.085 110.574 109.546C110.872 109.932 111.4 110.284 111.922 110.223C114.687 109.911 117.458 109.6 120.223 109.288C121.388 109.16 122.106 108.299 121.883 107.114C121.334 104.215 121.043 101.458 120.975 98.3961L120.989 98.4029Z" fill="#B3E5F4"/>
</svg>
