<svg width="241" height="36" viewBox="0 0 241 36" fill="none" xmlns="http://www.w3.org/2000/svg">
<path d="M10.6 30.44C8.14667 30.44 6.06667 30.0267 4.36 29.2C2.65333 28.3467 1.2 27.2533 0 25.92L4 21.88C5.89333 24.0133 8.22667 25.08 11 25.08C12.4933 25.08 13.6 24.7733 14.32 24.16C15.04 23.5467 15.4 22.7333 15.4 21.72C15.4 20.9467 15.1867 20.3067 14.76 19.8C14.3333 19.2667 13.4667 18.9067 12.16 18.72L9.4 18.36C6.44 17.9867 4.26667 17.0933 2.88 15.68C1.52 14.2667 0.84 12.3867 0.84 10.04C0.84 8.78667 1.08 7.64 1.56 6.6C2.04 5.56 2.72 4.66667 3.6 3.92C4.50667 3.17333 5.6 2.6 6.88 2.2C8.18667 1.77333 9.66667 1.56 11.32 1.56C13.4267 1.56 15.28 1.89333 16.88 2.56C18.48 3.22667 19.8533 4.2 21 5.48L16.96 9.56C16.2933 8.78667 15.48 8.16 14.52 7.68C13.5867 7.17333 12.4 6.92 10.96 6.92C9.6 6.92 8.58667 7.16 7.92 7.64C7.25333 8.12 6.92 8.78667 6.92 9.64C6.92 10.6 7.17333 11.2933 7.68 11.72C8.21333 12.1467 9.06667 12.4533 10.24 12.64L13 13.08C15.88 13.5333 18.0133 14.4267 19.4 15.76C20.7867 17.0667 21.48 18.9333 21.48 21.36C21.48 22.6933 21.24 23.92 20.76 25.04C20.28 26.16 19.5733 27.12 18.64 27.92C17.7333 28.72 16.6 29.3467 15.24 29.8C13.88 30.2267 12.3333 30.44 10.6 30.44Z" fill="#F7FDFF"/>
<path d="M26.2009 0.36H32.1209V17.84H32.3609L34.9609 13.96L39.1609 8.96H45.7209L38.7209 17L46.5209 29.96H39.4809L34.7609 21.08L32.1209 24.04V29.96H26.2009V0.36Z" fill="#F7FDFF"/>
<path d="M52.2469 6.72C51.0469 6.72 50.1669 6.45333 49.6069 5.92C49.0735 5.36 48.8069 4.65333 48.8069 3.8V2.92C48.8069 2.06667 49.0735 1.37333 49.6069 0.839999C50.1669 0.28 51.0469 0 52.2469 0C53.4469 0 54.3135 0.28 54.8469 0.839999C55.4069 1.37333 55.6869 2.06667 55.6869 2.92V3.8C55.6869 4.65333 55.4069 5.36 54.8469 5.92C54.3135 6.45333 53.4469 6.72 52.2469 6.72ZM49.2869 8.96H55.2069V29.96H49.2869V8.96Z" fill="#F7FDFF"/>
<path d="M66.6122 29.96C64.5855 29.96 63.0922 29.4667 62.1322 28.48C61.1989 27.4933 60.7322 26.0667 60.7322 24.2V0.36H66.6522V25.36H69.2922V29.96H66.6122Z" fill="#F7FDFF"/>
<path d="M78.4091 29.96C76.3824 29.96 74.8891 29.4667 73.9291 28.48C72.9957 27.4933 72.5291 26.0667 72.5291 24.2V0.36H78.4491V25.36H81.0891V29.96H78.4091Z" fill="#F7FDFF"/>
<path d="M93.3984 30.44C91.7984 30.44 90.3718 30.1867 89.1184 29.68C87.8651 29.1467 86.7984 28.4133 85.9184 27.48C85.0651 26.52 84.4118 25.36 83.9584 24C83.5318 22.64 83.3184 21.12 83.3184 19.44C83.3184 17.7867 83.5318 16.2933 83.9584 14.96C84.3851 13.6 85.0118 12.44 85.8384 11.48C86.6918 10.52 87.7318 9.78667 88.9584 9.28C90.1851 8.74667 91.5851 8.48 93.1584 8.48C94.8918 8.48 96.3718 8.77333 97.5984 9.36C98.8518 9.94667 99.8651 10.7333 100.638 11.72C101.438 12.7067 102.012 13.8533 102.358 15.16C102.732 16.44 102.918 17.7867 102.918 19.2V20.96H89.4384V21.28C89.4384 22.6667 89.8118 23.7733 90.5584 24.6C91.3051 25.4 92.4784 25.8 94.0784 25.8C95.3051 25.8 96.3051 25.56 97.0784 25.08C97.8518 24.5733 98.5718 23.9733 99.2384 23.28L102.198 26.96C101.265 28.0533 100.038 28.9067 98.5184 29.52C97.0251 30.1333 95.3184 30.44 93.3984 30.44ZM93.2784 12.84C92.0784 12.84 91.1318 13.24 90.4384 14.04C89.7718 14.8133 89.4384 15.8533 89.4384 17.16V17.48H96.7984V17.12C96.7984 15.84 96.5051 14.8133 95.9184 14.04C95.3584 13.24 94.4784 12.84 93.2784 12.84Z" fill="#F7FDFF"/>
<path d="M119.979 26.44H119.779C119.619 27 119.366 27.5333 119.019 28.04C118.673 28.52 118.246 28.9467 117.739 29.32C117.259 29.6667 116.699 29.9333 116.059 30.12C115.446 30.3333 114.806 30.44 114.139 30.44C111.473 30.44 109.459 29.5067 108.099 27.64C106.739 25.7467 106.059 23.0133 106.059 19.44C106.059 15.8667 106.739 13.1467 108.099 11.28C109.459 9.41333 111.473 8.48 114.139 8.48C115.499 8.48 116.699 8.85333 117.739 9.6C118.806 10.3467 119.486 11.3067 119.779 12.48H119.979V0.36H125.899V29.96H119.979V26.44ZM116.099 25.64C117.219 25.64 118.139 25.3733 118.859 24.84C119.606 24.28 119.979 23.52 119.979 22.56V16.36C119.979 15.4 119.606 14.6533 118.859 14.12C118.139 13.56 117.219 13.28 116.099 13.28C114.979 13.28 114.046 13.68 113.299 14.48C112.579 15.2533 112.219 16.3067 112.219 17.64V21.28C112.219 22.6133 112.579 23.68 113.299 24.48C114.046 25.2533 114.979 25.64 116.099 25.64Z" fill="#F7FDFF"/>
<path d="M140.795 30.44C138.342 30.44 136.262 30.0267 134.555 29.2C132.849 28.3467 131.395 27.2533 130.195 25.92L134.195 21.88C136.089 24.0133 138.422 25.08 141.195 25.08C142.689 25.08 143.795 24.7733 144.515 24.16C145.235 23.5467 145.595 22.7333 145.595 21.72C145.595 20.9467 145.382 20.3067 144.955 19.8C144.529 19.2667 143.662 18.9067 142.355 18.72L139.595 18.36C136.635 17.9867 134.462 17.0933 133.075 15.68C131.715 14.2667 131.035 12.3867 131.035 10.04C131.035 8.78667 131.275 7.64 131.755 6.6C132.235 5.56 132.915 4.66667 133.795 3.92C134.702 3.17333 135.795 2.6 137.075 2.2C138.382 1.77333 139.862 1.56 141.515 1.56C143.622 1.56 145.475 1.89333 147.075 2.56C148.675 3.22667 150.049 4.2 151.195 5.48L147.155 9.56C146.489 8.78667 145.675 8.16 144.715 7.68C143.782 7.17333 142.595 6.92 141.155 6.92C139.795 6.92 138.782 7.16 138.115 7.64C137.449 8.12 137.115 8.78667 137.115 9.64C137.115 10.6 137.369 11.2933 137.875 11.72C138.409 12.1467 139.262 12.4533 140.435 12.64L143.195 13.08C146.075 13.5333 148.209 14.4267 149.595 15.76C150.982 17.0667 151.675 18.9333 151.675 21.36C151.675 22.6933 151.435 23.92 150.955 25.04C150.475 26.16 149.769 27.12 148.835 27.92C147.929 28.72 146.795 29.3467 145.435 29.8C144.075 30.2267 142.529 30.44 140.795 30.44Z" fill="#F7FDFF"/>
<path d="M164.876 30.44C163.303 30.44 161.903 30.1867 160.676 29.68C159.45 29.1467 158.423 28.4133 157.596 27.48C156.77 26.52 156.143 25.36 155.716 24C155.29 22.64 155.076 21.12 155.076 19.44C155.076 17.76 155.29 16.2533 155.716 14.92C156.143 13.56 156.77 12.4 157.596 11.44C158.423 10.48 159.45 9.74667 160.676 9.24C161.903 8.73333 163.303 8.48 164.876 8.48C167.01 8.48 168.783 8.96 170.196 9.92C171.636 10.88 172.663 12.2267 173.276 13.96L168.476 16.04C168.29 15.24 167.903 14.56 167.316 14C166.73 13.44 165.916 13.16 164.876 13.16C163.676 13.16 162.77 13.56 162.156 14.36C161.543 15.1333 161.236 16.1867 161.236 17.52V21.44C161.236 22.7733 161.543 23.8267 162.156 24.6C162.77 25.3733 163.676 25.76 164.876 25.76C165.943 25.76 166.783 25.48 167.396 24.92C168.036 24.3333 168.503 23.5733 168.796 22.64L173.396 24.64C172.703 26.64 171.623 28.1067 170.156 29.04C168.716 29.9733 166.956 30.44 164.876 30.44Z" fill="#F7FDFF"/>
<path d="M206.443 29.96V8.96H212.363V13.52H212.563C212.67 12.9333 212.856 12.3733 213.123 11.84C213.39 11.28 213.736 10.7867 214.163 10.36C214.616 9.93333 215.15 9.6 215.763 9.36C216.376 9.09333 217.096 8.96 217.923 8.96H218.963V14.48H217.483C215.75 14.48 214.456 14.7067 213.603 15.16C212.776 15.6133 212.363 16.4533 212.363 17.68V29.96H206.443Z" fill="#F7FDFF"/>
<path d="M231.18 30.44C229.58 30.44 228.153 30.1867 226.9 29.68C225.646 29.1467 224.58 28.4133 223.7 27.48C222.846 26.52 222.193 25.36 221.74 24C221.313 22.64 221.1 21.12 221.1 19.44C221.1 17.7867 221.313 16.2933 221.74 14.96C222.166 13.6 222.793 12.44 223.62 11.48C224.473 10.52 225.513 9.78667 226.74 9.28C227.966 8.74667 229.366 8.48 230.94 8.48C232.673 8.48 234.153 8.77333 235.38 9.36C236.633 9.94667 237.646 10.7333 238.42 11.72C239.22 12.7067 239.793 13.8533 240.14 15.16C240.513 16.44 240.7 17.7867 240.7 19.2V20.96H227.22V21.28C227.22 22.6667 227.593 23.7733 228.34 24.6C229.086 25.4 230.26 25.8 231.86 25.8C233.086 25.8 234.086 25.56 234.86 25.08C235.633 24.5733 236.353 23.9733 237.02 23.28L239.98 26.96C239.046 28.0533 237.82 28.9067 236.3 29.52C234.806 30.1333 233.1 30.44 231.18 30.44ZM231.06 12.84C229.86 12.84 228.913 13.24 228.22 14.04C227.553 14.8133 227.22 15.8533 227.22 17.16V17.48H234.58V17.12C234.58 15.84 234.286 14.8133 233.7 14.04C233.14 13.24 232.26 12.84 231.06 12.84Z" fill="#F7FDFF"/>
<path d="M199.953 28.7816C200.407 29.0964 201.033 28.9853 201.314 28.5096C202.409 26.6538 203.049 24.5599 203.176 22.3995C203.323 19.9056 202.78 17.4193 201.607 15.2137C200.434 13.008 198.676 11.168 196.526 9.89573C194.376 8.62344 191.917 7.96796 189.419 8.0012C186.921 8.03445 184.48 8.75514 182.365 10.0842C180.25 11.4133 178.541 13.2993 177.427 15.5355C176.313 17.7716 175.836 20.2714 176.05 22.7605C176.234 24.9168 176.93 26.9929 178.074 28.8189C178.367 29.287 178.997 29.3813 179.442 29.0545L181.448 27.5826C181.893 27.2558 181.984 26.6323 181.708 26.1539C181.042 25.0008 180.636 23.7121 180.521 22.3776C180.378 20.7098 180.698 19.035 181.444 17.5368C182.191 16.0385 183.335 14.7749 184.753 13.8844C186.17 12.9939 187.805 12.5111 189.479 12.4888C191.152 12.4665 192.8 12.9057 194.24 13.7581C195.681 14.6106 196.859 15.8433 197.645 17.3211C198.431 18.799 198.795 20.4647 198.696 22.1357C198.618 23.4728 198.245 24.7718 197.611 25.9422C197.348 26.4278 197.455 27.0487 197.909 27.3635L199.953 28.7816Z" fill="#EFF7FA"/>
<mask id="mask0_306_1203" style="mask-type:alpha" maskUnits="userSpaceOnUse" x="176" y="8" width="28" height="16">
<path d="M201.99 23.8897C202.533 23.99 203.059 23.6312 203.119 23.0822C203.292 21.5034 203.188 19.9038 202.808 18.3563C202.348 16.4845 201.496 14.7319 200.307 13.2145C199.119 11.6971 197.621 10.4496 195.914 9.55473C194.207 8.65987 192.33 8.13805 190.406 8.02388C188.482 7.90971 186.555 8.20579 184.754 8.89249C182.954 9.57919 181.319 10.6408 179.96 12.007C178.6 13.3732 177.547 15.0128 176.869 16.8171C176.308 18.3087 176.015 19.8848 176.001 21.473C175.995 22.0253 176.475 22.4437 177.026 22.4083L179.509 22.2487C180.06 22.2132 180.472 21.7368 180.497 21.1851C180.541 20.233 180.733 19.2915 181.07 18.3954C181.524 17.1866 182.23 16.0881 183.141 15.1727C184.052 14.2574 185.147 13.5461 186.353 13.086C187.56 12.6259 188.851 12.4275 190.14 12.504C191.429 12.5805 192.687 12.9301 193.831 13.5297C194.974 14.1292 195.978 14.965 196.774 15.9817C197.57 16.9984 198.141 18.1726 198.449 19.4267C198.677 20.3563 198.757 21.314 198.688 22.2645C198.647 22.8153 199.001 23.3372 199.544 23.4376L201.99 23.8897Z" fill="url(#paint0_linear_306_1203)"/>
</mask>
<g mask="url(#mask0_306_1203)">
<rect x="166.859" y="16.0374" width="11.7274" height="15.8946" transform="rotate(-52 166.859 16.0374)" fill="#D5E1E5"/>
<rect width="13.1561" height="15.9821" transform="matrix(0.699525 0.714608 0.714608 -0.699525 191 20.1799)" fill="#406DC7"/>
<rect x="176.118" y="4.49536" width="8" height="17.2494" transform="rotate(-26 176.118 4.49536)" fill="#B3E5F4"/>
<rect x="186.743" y="-0.276611" width="8" height="17.2522" transform="rotate(-0.632061 186.743 -0.276611)" fill="#8FC5D5"/>
<rect width="8.43254" height="16.6117" transform="matrix(0.836332 0.548224 0.548224 -0.836332 189 17.8931)" fill="#5291CF"/>
</g>
<path d="M191.755 16.4042C191.93 16.1782 192.246 16.1176 192.492 16.2629C192.738 16.4082 192.837 16.7138 192.723 16.9759L190.165 22.8746C189.926 23.4264 189.257 23.6436 188.739 23.3377L188.107 22.9642C187.589 22.6583 187.456 21.9677 187.824 21.4917L191.755 16.4042Z" fill="#B3E5F4"/>
<defs>
<linearGradient id="paint0_linear_306_1203" x1="176" y1="22.65" x2="204.5" y2="17.5" gradientUnits="userSpaceOnUse">
<stop offset="0.124286" stop-color="#091845"/>
<stop offset="1" stop-color="#0D46FF"/>
</linearGradient>
</defs>
</svg>
