<svg width="24" height="24" viewBox="0 0 24 24" fill="none" xmlns="http://www.w3.org/2000/svg">
<g clip-path="url(#clip0_92_306)">
<path d="M12.4 5.3L13.3 7.1999C13.4 7.2999 13.5 7.39995 13.7 7.49995L15.6 7.8C16 7.9 16.1 8.3999 15.9 8.6999L14.5 10.0999C14.4 10.1999 14.3 10.3999 14.4 10.5999L14.7 12.5999C14.8 12.9999 14.4 13.2999 14 13.0999L12.2 12.0999C12.1 11.9999 11.9 11.9999 11.8 12.0999L10 13.0999C9.70001 13.2999 9.30001 12.9999 9.30001 12.5999L9.60001 10.5999C9.60001 10.3999 9.60001 10.2999 9.50001 10.0999L8.10001 8.6999C7.80001 8.3999 8.00001 7.9 8.40001 7.8L10.3 7.49995C10.5 7.49995 10.6 7.3999 10.7 7.1999L11.6 5.3C11.8 4.9 12.2 4.9 12.4 5.3Z" stroke="#BBC3E2" stroke-width="1.5" stroke-linecap="round" stroke-linejoin="round"/>
<path d="M12 18C16.6944 18 20.5 14.1944 20.5 9.5C20.5 4.80558 16.6944 1 12 1C7.30558 1 3.5 4.80558 3.5 9.5C3.5 14.1944 7.30558 18 12 18Z" stroke="#BBC3E2" stroke-width="1.5" stroke-miterlimit="10" stroke-linecap="round" stroke-linejoin="round"/>
<path d="M5.3 14.7L1 19H5V23L10.2 17.8" stroke="#BBC3E2" stroke-width="1.5" stroke-miterlimit="10" stroke-linecap="round" stroke-linejoin="round"/>
<path d="M18.7 14.7L23 19H19V23L13.8 17.8" stroke="#BBC3E2" stroke-width="1.5" stroke-miterlimit="10" stroke-linecap="round" stroke-linejoin="round"/>
</g>
<defs>
<clipPath id="clip0_92_306">
<rect width="24" height="24" fill="white"/>
</clipPath>
</defs>
</svg>
