<svg width="24" height="24" viewBox="0 0 24 24" fill="none" xmlns="http://www.w3.org/2000/svg">
<path d="M19.5 11.5C18.5 11.5 17.6 11.9 17 12.6V9C17 7.9 16.1 7 15 7H11.4C12 6.4 12.5 5.5 12.5 4.5C12.5 2.6 10.9 1 9 1C7.1 1 5.5 2.6 5.5 4.5C5.5 5.5 5.9 6.4 6.6 7H3C1.9 7 1 7.9 1 9V21C1 22.1 1.9 23 3 23H15C16.1 23 17 22.1 17 21V17.4C17.6 18 18.5 18.5 19.5 18.5C21.4 18.5 23 16.9 23 15C23 13.1 21.4 11.5 19.5 11.5Z" stroke="#BBC3E2" stroke-width="1.5" stroke-miterlimit="10" stroke-linecap="round" stroke-linejoin="round"/>
</svg>
